<svg width="59" height="59" viewBox="0 0 59 59" fill="none" xmlns="http://www.w3.org/2000/svg">
<path d="M39.6867 14.2559L43.5982 18.1674C43.7711 18.3402 44.0055 18.4373 44.25 18.4373C44.4944 18.4373 44.7289 18.3402 44.9017 18.1674L52.2767 10.7924C52.4447 10.6185 52.5376 10.3857 52.5355 10.144C52.5334 9.90224 52.4364 9.67102 52.2655 9.5001C52.0946 9.32917 51.8634 9.23222 51.6217 9.23012C51.38 9.22802 51.1471 9.32094 50.9732 9.48887L44.25 16.2121L40.9902 12.9524C40.8164 12.7844 40.5835 12.6915 40.3418 12.6936C40.1001 12.6957 39.8689 12.7927 39.6979 12.9636C39.527 13.1345 39.4301 13.3657 39.428 13.6074C39.4259 13.8491 39.5188 14.082 39.6867 14.2559V14.2559Z" fill="#F99E00"/>
<path d="M56.2344 47.9375H55.3125V19.3594C55.308 19.2687 55.29 19.1792 55.259 19.0939C56.1838 17.7262 56.7906 16.1687 57.0347 14.5359C57.2789 12.903 57.1542 11.2362 56.6699 9.65777C56.1856 8.07938 55.354 6.6295 54.236 5.41457C53.118 4.19964 51.7422 3.25052 50.2094 2.63688C48.6767 2.02325 47.026 1.76068 45.3785 1.86847C43.731 1.97625 42.1285 2.45164 40.6888 3.25974C39.2491 4.06784 38.0086 5.18813 37.0584 6.53836C36.1083 7.88859 35.4726 9.43447 35.1981 11.0625H8.29688C7.07484 11.064 5.90328 11.5501 5.03917 12.4142C4.17506 13.2783 3.68896 14.4498 3.6875 15.6719V47.9375H2.76563C2.52113 47.9375 2.28665 48.0346 2.11376 48.2075C1.94088 48.3804 1.84375 48.6149 1.84375 48.8594V52.5469C1.84521 53.7689 2.33131 54.9405 3.19542 55.8046C4.05953 56.6687 5.23109 57.1548 6.45313 57.1563H52.5469C53.7689 57.1548 54.9405 56.6687 55.8046 55.8046C56.6687 54.9405 57.1548 53.7689 57.1563 52.5469V48.8594C57.1563 48.6149 57.0591 48.3804 56.8862 48.2075C56.7134 48.0346 56.4789 47.9375 56.2344 47.9375ZM46.0938 3.6875C47.917 3.6875 49.6994 4.22817 51.2154 5.24114C52.7314 6.25411 53.913 7.69388 54.6108 9.37839C55.3085 11.0629 55.4911 12.9165 55.1354 14.7047C54.7797 16.493 53.9017 18.1356 52.6124 19.4249C51.3231 20.7142 49.6805 21.5922 47.8922 21.9479C46.104 22.3036 44.2504 22.121 42.5659 21.4233C40.8814 20.7255 39.4416 19.5439 38.4286 18.0279C37.4157 16.5119 36.875 14.7296 36.875 12.9063C36.8777 10.4621 37.8498 8.11885 39.5781 6.39058C41.3063 4.66231 43.6496 3.69019 46.0938 3.6875V3.6875ZM39.9919 22.125H37.7969C37.5524 22.125 37.3179 22.2221 37.145 22.395C36.9721 22.5679 36.875 22.8024 36.875 23.0469V30.4219C36.875 30.6664 36.9721 30.9009 37.145 31.0737C37.3179 31.2466 37.5524 31.3438 37.7969 31.3438H47.0156C47.2601 31.3438 47.4946 31.2466 47.6675 31.0737C47.8404 30.9009 47.9375 30.6664 47.9375 30.4219V23.8019C48.5649 23.6966 49.1818 23.5365 49.7813 23.3234V44.25H9.21875V16.5938H35.6766C36.4799 18.8552 37.9938 20.7957 39.9919 22.125V22.125ZM46.0938 23.9688V29.5H38.7188V23.9688H46.0938ZM5.53125 15.6719C5.53125 14.9384 5.82263 14.2349 6.34128 13.7163C6.85994 13.1976 7.56339 12.9063 8.29688 12.9063H35.0313C35.0352 13.5244 35.091 14.1412 35.1981 14.75H8.29688C8.05238 14.75 7.8179 14.8471 7.64501 15.02C7.47213 15.1929 7.375 15.4274 7.375 15.6719V45.1719C7.375 45.4164 7.47213 45.6509 7.64501 45.8237C7.8179 45.9966 8.05238 46.0938 8.29688 46.0938H50.7031C50.9476 46.0938 51.1821 45.9966 51.355 45.8237C51.5279 45.6509 51.625 45.4164 51.625 45.1719V22.4716C52.2842 22.0886 52.902 21.6385 53.4688 21.1285V47.9375H5.53125V15.6719ZM24.8906 49.7813H34.1094V50.7031C34.1094 50.9476 34.0123 51.1821 33.8394 51.355C33.6665 51.5279 33.432 51.625 33.1875 51.625H25.8125C25.568 51.625 25.3335 51.5279 25.1606 51.355C24.9878 51.1821 24.8906 50.9476 24.8906 50.7031V49.7813ZM55.3125 52.5469C55.3125 53.2804 55.0211 53.9838 54.5025 54.5025C53.9838 55.0211 53.2804 55.3125 52.5469 55.3125H6.45313C5.71964 55.3125 5.01619 55.0211 4.49753 54.5025C3.97888 53.9838 3.6875 53.2804 3.6875 52.5469V49.7813H23.0469V50.7031C23.0469 51.4366 23.3383 52.1401 23.8569 52.6587C24.3756 53.1774 25.079 53.4688 25.8125 53.4688H33.1875C33.921 53.4688 34.6244 53.1774 35.1431 52.6587C35.6617 52.1401 35.9531 51.4366 35.9531 50.7031V49.7813H55.3125V52.5469Z" fill="#F99E00"/>
<path d="M11.0625 18.4375H12.9062V20.2812H11.0625V18.4375Z" fill="#F99E00"/>
<path d="M14.75 18.4375H16.5938V20.2812H14.75V18.4375Z" fill="#F99E00"/>
<path d="M18.4375 18.4375H20.2812V20.2812H18.4375V18.4375Z" fill="#F99E00"/>
<path d="M22.125 18.4375H35.0312V20.2812H22.125V18.4375Z" fill="#F99E00"/>
<path d="M11.9844 31.3438H21.2031C21.4476 31.3438 21.6821 31.2466 21.855 31.0737C22.0279 30.9009 22.125 30.6664 22.125 30.4219V23.0469C22.125 22.8024 22.0279 22.5679 21.855 22.395C21.6821 22.2221 21.4476 22.125 21.2031 22.125H11.9844C11.7399 22.125 11.5054 22.2221 11.3325 22.395C11.1596 22.5679 11.0625 22.8024 11.0625 23.0469V30.4219C11.0625 30.6664 11.1596 30.9009 11.3325 31.0737C11.5054 31.2466 11.7399 31.3438 11.9844 31.3438ZM12.9062 23.9688H20.2812V29.5H12.9062V23.9688Z" fill="#F99E00"/>
<path d="M34.1094 22.125H24.8906C24.6461 22.125 24.4116 22.2221 24.2388 22.395C24.0659 22.5679 23.9688 22.8024 23.9688 23.0469V30.4219C23.9688 30.6664 24.0659 30.9009 24.2388 31.0737C24.4116 31.2466 24.6461 31.3438 24.8906 31.3438H34.1094C34.3539 31.3438 34.5884 31.2466 34.7612 31.0737C34.9341 30.9009 35.0312 30.6664 35.0312 30.4219V23.0469C35.0312 22.8024 34.9341 22.5679 34.7612 22.395C34.5884 22.2221 34.3539 22.125 34.1094 22.125ZM33.1875 29.5H25.8125V23.9688H33.1875V29.5Z" fill="#F99E00"/>
<path d="M12.9062 33.1875H20.2812V35.0312H12.9062V33.1875Z" fill="#F99E00"/>
<path d="M12.9062 36.875H20.2812V38.7188H12.9062V36.875Z" fill="#F99E00"/>
<path d="M12.9062 40.5625H20.2812V42.4062H12.9062V40.5625Z" fill="#F99E00"/>
<path d="M29.5 33.1875H33.1875V35.0312H29.5V33.1875Z" fill="#F99E00"/>
<path d="M29.5 36.875H33.1875V38.7188H29.5V36.875Z" fill="#F99E00"/>
<path d="M29.5 40.5625H33.1875V42.4062H29.5V40.5625Z" fill="#F99E00"/>
<path d="M38.7188 33.1875H46.0938V35.0312H38.7188V33.1875Z" fill="#F99E00"/>
<path d="M38.7188 36.875H46.0938V38.7188H38.7188V36.875Z" fill="#F99E00"/>
<path d="M38.7188 40.5625H46.0938V42.4062H38.7188V40.5625Z" fill="#F99E00"/>
<path d="M25.8125 33.1875H27.6562V35.0312H25.8125V33.1875Z" fill="#F99E00"/>
<path d="M25.8125 36.875H27.6562V38.7188H25.8125V36.875Z" fill="#F99E00"/>
<path d="M25.8125 40.5625H27.6562V42.4062H25.8125V40.5625Z" fill="#F99E00"/>
</svg>
